<?xml version="1.0" encoding="UTF-8" standalone="no"?>
<!DOCTYPE svg PUBLIC "-//W3C//DTD SVG 1.1//EN"
 "http://www.w3.org/Graphics/SVG/1.1/DTD/svg11.dtd">
<!-- Generated by graphviz version 2.40.1 (20161225.0304)
 -->
<!-- Title: %3 Pages: 1 -->
<svg width="1037pt" height="720pt"
 viewBox="0.00 0.00 1036.52 720.00" xmlns="http://www.w3.org/2000/svg" xmlns:xlink="http://www.w3.org/1999/xlink">
<g id="graph0" class="graph" transform="scale(1 1) rotate(0) translate(4 716)">
<title>%3</title>
<polygon fill="#ffffff" stroke="transparent" points="-4,4 -4,-716 1032.5209,-716 1032.5209,4 -4,4"/>
<g id="clust1" class="cluster">
<title>cluster_input</title>
<polygon fill="none" stroke="#000000" points="129.5209,-443 129.5209,-704 1020.5209,-704 1020.5209,-443 129.5209,-443"/>
<text text-anchor="middle" x="575.0209" y="-688.8" font-family="Times,serif" font-size="14.00" fill="#000000">Input</text>
</g>
<g id="clust2" class="cluster">
<title>cluster_pcap</title>
<polygon fill="none" stroke="#000000" points="611.5209,-523 611.5209,-598 1012.5209,-598 1012.5209,-523 611.5209,-523"/>
<text text-anchor="middle" x="812.0209" y="-582.8" font-family="Times,serif" font-size="14.00" fill="#000000">Input</text>
</g>
<g id="clust3" class="cluster">
<title>cluster_win</title>
<polygon fill="none" stroke="#000000" points="379.5209,-451 379.5209,-673 603.5209,-673 603.5209,-451 379.5209,-451"/>
<text text-anchor="middle" x="491.5209" y="-657.8" font-family="Times,serif" font-size="14.00" fill="#000000">Windows</text>
</g>
<g id="clust4" class="cluster">
<title>cluster_syslog</title>
<polygon fill="none" stroke="#000000" points="137.5209,-523 137.5209,-673 371.5209,-673 371.5209,-523 137.5209,-523"/>
<text text-anchor="middle" x="254.5209" y="-657.8" font-family="Times,serif" font-size="14.00" fill="#000000">linux</text>
</g>
<g id="clust5" class="cluster">
<title>cluster_data</title>
<polygon fill="none" stroke="#000000" points="30.5209,-130 30.5209,-379 715.5209,-379 715.5209,-130 30.5209,-130"/>
</g>
<g id="clust6" class="cluster">
<title>cluster_kafka</title>
<polygon fill="none" stroke="#000000" points="141.5209,-296 141.5209,-371 319.5209,-371 319.5209,-296 141.5209,-296"/>
<text text-anchor="middle" x="230.5209" y="-355.8" font-family="Times,serif" font-size="14.00" fill="#000000">Kafka</text>
</g>
<g id="clust7" class="cluster">
<title>cluster_ela</title>
<polygon fill="none" stroke="#000000" points="421.5209,-138 421.5209,-213 707.5209,-213 707.5209,-138 421.5209,-138"/>
<text text-anchor="middle" x="564.5209" y="-197.8" font-family="Times,serif" font-size="14.00" fill="#000000">Elastic</text>
</g>
<g id="clust8" class="cluster">
<title>cluster_sauce</title>
<polygon fill="none" stroke="#000000" points="38.5209,-138 38.5209,-288 413.5209,-288 413.5209,-138 38.5209,-138"/>
<text text-anchor="middle" x="226.0209" y="-272.8" font-family="Times,serif" font-size="14.00" fill="#000000">sauce</text>
</g>
<g id="clust9" class="cluster">
<title>cluster_front</title>
<polygon fill="none" stroke="#000000" points="42.5209,-8 42.5209,-122 919.5209,-122 919.5209,-8 42.5209,-8"/>
<text text-anchor="middle" x="481.0209" y="-106.8" font-family="Times,serif" font-size="14.00" fill="#000000">Frontend</text>
</g>
<g id="clust10" class="cluster">
<title>cluster_kibana</title>
<polygon fill="none" stroke="#000000" points="530.5209,-16 530.5209,-91 706.5209,-91 706.5209,-16 530.5209,-16"/>
<text text-anchor="middle" x="618.5209" y="-75.8" font-family="Times,serif" font-size="14.00" fill="#000000">Kibana</text>
</g>
<!-- syslog -->
<g id="node1" class="node">
<title>syslog</title>
<ellipse fill="none" stroke="#000000" cx="242.5209" cy="-405" rx="79.0865" ry="18"/>
<text text-anchor="middle" x="242.5209" y="-401.3" font-family="Times,serif" font-size="14.00" fill="#000000">Rsyslog server</text>
</g>
<!-- kafkaY -->
<g id="node13" class="node">
<title>kafkaY</title>
<ellipse fill="none" stroke="#000000" cx="189.5209" cy="-322" rx="40.0939" ry="18"/>
<text text-anchor="middle" x="189.5209" y="-318.3" font-family="Times,serif" font-size="14.00" fill="#000000">Yellow</text>
</g>
<!-- syslog&#45;&gt;kafkaY -->
<g id="edge19" class="edge">
<title>syslog&#45;&gt;kafkaY</title>
<path fill="none" stroke="#000000" d="M231.0207,-386.9902C223.7691,-375.634 214.2832,-360.7786 206.2111,-348.1375"/>
<polygon fill="#000000" stroke="#000000" points="208.9673,-345.9504 200.6355,-339.4058 203.0675,-349.7178 208.9673,-345.9504"/>
</g>
<!-- elasticY -->
<g id="node15" class="node">
<title>elasticY</title>
<ellipse fill="none" stroke="#000000" cx="659.5209" cy="-164" rx="40.0939" ry="18"/>
<text text-anchor="middle" x="659.5209" y="-160.3" font-family="Times,serif" font-size="14.00" fill="#000000">Yellow</text>
</g>
<!-- syslog&#45;&gt;elasticY -->
<g id="edge20" class="edge">
<title>syslog&#45;&gt;elasticY</title>
<path fill="none" stroke="#000000" d="M292.4094,-390.8384C302.8442,-387.3641 313.6654,-383.3716 323.5209,-379 458.2197,-319.2521 493.6513,-302.7501 610.5209,-213 620.0178,-205.7068 629.537,-196.6778 637.6254,-188.3653"/>
<polygon fill="#000000" stroke="#000000" points="640.2665,-190.6667 644.6097,-181.003 635.1881,-185.849 640.2665,-190.6667"/>
</g>
<!-- pcap -->
<g id="node2" class="node">
<title>pcap</title>
<ellipse fill="none" stroke="#000000" cx="795.5209" cy="-624" rx="63.8893" ry="18"/>
<text text-anchor="middle" x="795.5209" y="-620.3" font-family="Times,serif" font-size="14.00" fill="#000000">Port mirror</text>
</g>
<!-- bro -->
<g id="node3" class="node">
<title>bro</title>
<ellipse fill="none" stroke="#000000" cx="646.5209" cy="-549" rx="27" ry="18"/>
<text text-anchor="middle" x="646.5209" y="-545.3" font-family="Times,serif" font-size="14.00" fill="#000000">bro</text>
</g>
<!-- pcap&#45;&gt;bro -->
<g id="edge1" class="edge">
<title>pcap&#45;&gt;bro</title>
<path fill="none" stroke="#000000" d="M740.1552,-614.9918C716.6008,-610.4058 692.3187,-604.4424 682.5209,-598 673.749,-592.2321 666.3594,-583.5505 660.602,-575.0895"/>
<polygon fill="#000000" stroke="#000000" points="663.4825,-573.0949 655.2035,-566.4836 657.5526,-576.8148 663.4825,-573.0949"/>
</g>
<!-- moloch -->
<g id="node4" class="node">
<title>moloch</title>
<ellipse fill="none" stroke="#000000" cx="851.5209" cy="-549" rx="44.393" ry="18"/>
<text text-anchor="middle" x="851.5209" y="-545.3" font-family="Times,serif" font-size="14.00" fill="#000000">moloch</text>
</g>
<!-- pcap&#45;&gt;moloch -->
<g id="edge2" class="edge">
<title>pcap&#45;&gt;moloch</title>
<path fill="none" stroke="#000000" d="M808.7921,-606.226C815.887,-596.724 824.7457,-584.8597 832.5545,-574.4015"/>
<polygon fill="#000000" stroke="#000000" points="835.3597,-576.4945 838.5381,-566.3876 829.7507,-572.3064 835.3597,-576.4945"/>
</g>
<!-- suricata -->
<g id="node5" class="node">
<title>suricata</title>
<ellipse fill="none" stroke="#000000" cx="740.5209" cy="-549" rx="48.9926" ry="18"/>
<text text-anchor="middle" x="740.5209" y="-545.3" font-family="Times,serif" font-size="14.00" fill="#000000">suricata</text>
</g>
<!-- pcap&#45;&gt;suricata -->
<g id="edge3" class="edge">
<title>pcap&#45;&gt;suricata</title>
<path fill="none" stroke="#000000" d="M782.4867,-606.226C775.5875,-596.818 766.9901,-585.0944 759.3768,-574.7125"/>
<polygon fill="#000000" stroke="#000000" points="762.0079,-572.3819 753.2718,-566.3876 756.3631,-576.5215 762.0079,-572.3819"/>
</g>
<!-- mendel_cap -->
<g id="node6" class="node">
<title>mendel_cap</title>
<ellipse fill="none" stroke="#000000" cx="959.5209" cy="-549" rx="45.4919" ry="18"/>
<text text-anchor="middle" x="959.5209" y="-545.3" font-family="Times,serif" font-size="14.00" fill="#000000">Mendel</text>
</g>
<!-- pcap&#45;&gt;mendel_cap -->
<g id="edge4" class="edge">
<title>pcap&#45;&gt;mendel_cap</title>
<path fill="none" stroke="#000000" d="M852.5896,-615.9182C869.9115,-612.0288 888.5671,-606.3253 904.5209,-598 916.3899,-591.8063 927.7492,-582.4841 937.0307,-573.6278"/>
<polygon fill="#000000" stroke="#000000" points="939.6931,-575.9158 944.3042,-566.377 934.751,-570.9584 939.6931,-575.9158"/>
</g>
<!-- bro&#45;&gt;kafkaY -->
<g id="edge17" class="edge">
<title>bro&#45;&gt;kafkaY</title>
<path fill="none" stroke="#000000" d="M629.3028,-534.7339C622.8566,-530.1744 615.2212,-525.6315 607.5209,-523 524.0412,-494.4718 289.5307,-536.1969 211.5209,-495 175.4305,-475.9407 167.9323,-461.5475 154.5209,-423 145.5968,-397.35 158.3134,-368.0202 170.8449,-347.5998"/>
<polygon fill="#000000" stroke="#000000" points="173.8144,-349.4534 176.3253,-339.1604 167.9436,-345.641 173.8144,-349.4534"/>
</g>
<!-- elasticM -->
<g id="node17" class="node">
<title>elasticM</title>
<ellipse fill="none" stroke="#000000" cx="474.5209" cy="-164" rx="44.6926" ry="18"/>
<text text-anchor="middle" x="474.5209" y="-160.3" font-family="Times,serif" font-size="14.00" fill="#000000">Moloch</text>
</g>
<!-- moloch&#45;&gt;elasticM -->
<g id="edge18" class="edge">
<title>moloch&#45;&gt;elasticM</title>
<path fill="none" stroke="#000000" d="M823.7775,-534.9599C762.6045,-503.5697 621.5209,-428.6144 621.5209,-405 621.5209,-405 621.5209,-405 621.5209,-322 621.5209,-304.3643 542.0054,-227.2042 499.9376,-187.6165"/>
<polygon fill="#000000" stroke="#000000" points="502.2345,-184.9722 492.546,-180.6846 497.4461,-190.0783 502.2345,-184.9722"/>
</g>
<!-- suricata&#45;&gt;syslog -->
<g id="edge16" class="edge">
<title>suricata&#45;&gt;syslog</title>
<path fill="none" stroke="#000000" d="M712.6331,-534.0566C703.3119,-529.7315 692.7003,-525.5052 682.5209,-523 633.1219,-510.8428 260.3762,-532.0563 225.5209,-495 209.8143,-478.3016 217.1897,-451.8678 226.6308,-431.9595"/>
<polygon fill="#000000" stroke="#000000" points="229.7471,-433.5527 231.1884,-423.0564 223.5161,-430.363 229.7471,-433.5527"/>
</g>
<!-- scirius -->
<g id="node24" class="node">
<title>scirius</title>
<ellipse fill="none" stroke="#000000" cx="760.5209" cy="-42" rx="43.5923" ry="18"/>
<text text-anchor="middle" x="760.5209" y="-38.3" font-family="Times,serif" font-size="14.00" fill="#000000">Scirius</text>
</g>
<!-- suricata&#45;&gt;scirius -->
<g id="edge32" class="edge">
<title>suricata&#45;&gt;scirius</title>
<path fill="none" stroke="#000000" d="M742.5929,-530.8427C745.522,-503.5621 750.5209,-450.359 750.5209,-405 750.5209,-405 750.5209,-405 750.5209,-239 750.5209,-179.0003 755.2049,-108.8535 758.1614,-70.5525"/>
<polygon fill="#000000" stroke="#000000" points="761.6822,-70.4259 758.9803,-60.1814 754.7039,-69.8749 761.6822,-70.4259"/>
</g>
<!-- mendel_front -->
<g id="node26" class="node">
<title>mendel_front</title>
<ellipse fill="none" stroke="#000000" cx="866.5209" cy="-42" rx="44.6926" ry="18"/>
<text text-anchor="middle" x="866.5209" y="-38.3" font-family="Times,serif" font-size="14.00" fill="#000000">mendel</text>
</g>
<!-- mendel_cap&#45;&gt;mendel_front -->
<g id="edge34" class="edge">
<title>mendel_cap&#45;&gt;mendel_front</title>
<path fill="none" stroke="#000000" d="M949.5534,-530.9772C935.757,-504.2973 912.5209,-452.3363 912.5209,-405 912.5209,-405 912.5209,-405 912.5209,-239 912.5209,-177.2014 890.7893,-107.2873 877.1998,-69.609"/>
<polygon fill="#000000" stroke="#000000" points="880.352,-68.0411 873.6076,-59.8702 873.7845,-70.4635 880.352,-68.0411"/>
</g>
<!-- salt -->
<g id="node7" class="node">
<title>salt</title>
<ellipse fill="none" stroke="#000000" cx="305.5209" cy="-477" rx="65.7887" ry="18"/>
<text text-anchor="middle" x="305.5209" y="-473.3" font-family="Times,serif" font-size="14.00" fill="#000000">Salt Master</text>
</g>
<!-- inventory -->
<g id="node18" class="node">
<title>inventory</title>
<ellipse fill="none" stroke="#ffa500" cx="316.5209" cy="-164" rx="55.7903" ry="18"/>
<text text-anchor="middle" x="316.5209" y="-160.3" font-family="Times,serif" font-size="14.00" fill="#000000">Inventory</text>
</g>
<!-- salt&#45;&gt;inventory -->
<g id="edge12" class="edge">
<title>salt&#45;&gt;inventory</title>
<path fill="none" stroke="#000000" d="M320.0076,-459.402C345.1514,-427.5852 395.9594,-357.3379 414.5209,-288 422.2212,-259.2351 429.3684,-246.8121 414.5209,-221 403.9426,-202.6098 384.8985,-189.6008 366.393,-180.7019"/>
<polygon fill="#000000" stroke="#000000" points="367.6598,-177.4342 357.103,-176.5372 364.7963,-183.8218 367.6598,-177.4342"/>
</g>
<!-- sysmon -->
<g id="node8" class="node">
<title>sysmon</title>
<ellipse fill="none" stroke="#000000" cx="491.5209" cy="-624" rx="47.3916" ry="18"/>
<text text-anchor="middle" x="491.5209" y="-620.3" font-family="Times,serif" font-size="14.00" fill="#000000">Sysmon</text>
</g>
<!-- windows -->
<g id="node9" class="node">
<title>windows</title>
<ellipse fill="none" stroke="#000000" cx="491.5209" cy="-549" rx="103.9815" ry="18"/>
<text text-anchor="middle" x="491.5209" y="-545.3" font-family="Times,serif" font-size="14.00" fill="#000000">Windows Event Log</text>
</g>
<!-- sysmon&#45;&gt;windows -->
<g id="edge5" class="edge">
<title>sysmon&#45;&gt;windows</title>
<path fill="none" stroke="#000000" d="M491.5209,-605.8446C491.5209,-597.3401 491.5209,-587.0076 491.5209,-577.4964"/>
<polygon fill="#000000" stroke="#000000" points="495.021,-577.2481 491.5209,-567.2482 488.021,-577.2482 495.021,-577.2481"/>
</g>
<!-- windows&#45;&gt;salt -->
<g id="edge7" class="edge">
<title>windows&#45;&gt;salt</title>
<path fill="none" stroke="#000000" d="M448.8487,-532.4817C420.3261,-521.4407 382.7655,-506.9011 353.2507,-495.4761"/>
<polygon fill="#000000" stroke="#000000" points="354.1637,-492.0764 343.5745,-491.7304 351.6367,-498.6044 354.1637,-492.0764"/>
</g>
<!-- nxlog -->
<g id="node10" class="node">
<title>nxlog</title>
<ellipse fill="none" stroke="#000000" cx="461.5209" cy="-477" rx="43.5923" ry="18"/>
<text text-anchor="middle" x="461.5209" y="-473.3" font-family="Times,serif" font-size="14.00" fill="#000000">NXLog</text>
</g>
<!-- windows&#45;&gt;nxlog -->
<g id="edge6" class="edge">
<title>windows&#45;&gt;nxlog</title>
<path fill="none" stroke="#000000" d="M483.9506,-530.8314C480.5854,-522.7547 476.5526,-513.0761 472.8404,-504.1668"/>
<polygon fill="#000000" stroke="#000000" points="476.0618,-502.798 468.9848,-494.9134 469.6003,-505.4904 476.0618,-502.798"/>
</g>
<!-- nxlog&#45;&gt;syslog -->
<g id="edge10" class="edge">
<title>nxlog&#45;&gt;syslog</title>
<path fill="none" stroke="#000000" d="M442.0506,-460.5319C433.721,-454.2219 423.6027,-447.4719 413.5209,-443 384.6733,-430.2044 351.1157,-421.5385 321.4064,-415.7567"/>
<polygon fill="#000000" stroke="#000000" points="321.9636,-412.3004 311.4909,-413.9047 320.6783,-419.1814 321.9636,-412.3004"/>
</g>
<!-- snoopy -->
<g id="node11" class="node">
<title>snoopy</title>
<ellipse fill="none" stroke="#000000" cx="254.5209" cy="-624" rx="44.6926" ry="18"/>
<text text-anchor="middle" x="254.5209" y="-620.3" font-family="Times,serif" font-size="14.00" fill="#000000">Snoopy</text>
</g>
<!-- linux -->
<g id="node12" class="node">
<title>linux</title>
<ellipse fill="none" stroke="#000000" cx="254.5209" cy="-549" rx="108.5808" ry="18"/>
<text text-anchor="middle" x="254.5209" y="-545.3" font-family="Times,serif" font-size="14.00" fill="#000000">Rsyslog syslog client</text>
</g>
<!-- snoopy&#45;&gt;linux -->
<g id="edge8" class="edge">
<title>snoopy&#45;&gt;linux</title>
<path fill="none" stroke="#000000" d="M254.5209,-605.8446C254.5209,-597.3401 254.5209,-587.0076 254.5209,-577.4964"/>
<polygon fill="#000000" stroke="#000000" points="258.021,-577.2481 254.5209,-567.2482 251.021,-577.2482 258.021,-577.2481"/>
</g>
<!-- linux&#45;&gt;syslog -->
<g id="edge11" class="edge">
<title>linux&#45;&gt;syslog</title>
<path fill="none" stroke="#000000" d="M227.9298,-531.4861C216.2704,-522.1895 203.8228,-509.651 197.5209,-495 188.389,-473.7696 187.7865,-463.961 197.5209,-443 199.8897,-437.8992 203.3178,-433.2362 207.2406,-429.0583"/>
<polygon fill="#000000" stroke="#000000" points="209.799,-431.4579 214.7141,-422.0721 205.0187,-426.3442 209.799,-431.4579"/>
</g>
<!-- linux&#45;&gt;salt -->
<g id="edge9" class="edge">
<title>linux&#45;&gt;salt</title>
<path fill="none" stroke="#000000" d="M267.3904,-530.8314C273.2939,-522.497 280.4057,-512.4567 286.8802,-503.3162"/>
<polygon fill="#000000" stroke="#000000" points="289.9081,-505.0967 292.8322,-494.9134 284.1959,-501.0506 289.9081,-505.0967"/>
</g>
<!-- peek -->
<g id="node20" class="node">
<title>peek</title>
<ellipse fill="none" stroke="#ffa500" cx="372.5209" cy="-239" rx="33.2948" ry="18"/>
<text text-anchor="middle" x="372.5209" y="-235.3" font-family="Times,serif" font-size="14.00" fill="#000000">peek</text>
</g>
<!-- kafkaY&#45;&gt;peek -->
<g id="edge21" class="edge">
<title>kafkaY&#45;&gt;peek</title>
<path fill="none" stroke="#000000" d="M213.1235,-307.0237C220.9269,-302.7519 229.8394,-298.565 238.5209,-296 277.882,-284.3703 294.0113,-306.7507 330.5209,-288 340.7928,-282.7245 349.6013,-273.755 356.4598,-264.9207"/>
<polygon fill="#000000" stroke="#000000" points="359.4324,-266.7816 362.4221,-256.6173 353.7464,-262.6987 359.4324,-266.7816"/>
</g>
<!-- kafkaB -->
<g id="node14" class="node">
<title>kafkaB</title>
<ellipse fill="none" stroke="#000000" cx="279.5209" cy="-322" rx="31.6951" ry="18"/>
<text text-anchor="middle" x="279.5209" y="-318.3" font-family="Times,serif" font-size="14.00" fill="#000000">Blue</text>
</g>
<!-- sec -->
<g id="node21" class="node">
<title>sec</title>
<ellipse fill="none" stroke="#ffa500" cx="136.5209" cy="-239" rx="90.1842" ry="18"/>
<text text-anchor="middle" x="136.5209" y="-235.3" font-family="Times,serif" font-size="14.00" fill="#000000">Correlation rules</text>
</g>
<!-- kafkaB&#45;&gt;sec -->
<g id="edge24" class="edge">
<title>kafkaB&#45;&gt;sec</title>
<path fill="none" stroke="#000000" d="M258.3803,-308.2791C252.0396,-304.2493 245.0375,-299.883 238.5209,-296 218.453,-284.0423 195.8001,-271.3087 176.9484,-260.9169"/>
<polygon fill="#000000" stroke="#000000" points="178.4772,-257.7634 168.0272,-256.0172 175.1074,-263.899 178.4772,-257.7634"/>
</g>
<!-- elasticY&#45;&gt;peek -->
<g id="edge15" class="edge">
<title>elasticY&#45;&gt;peek</title>
<path fill="none" stroke="#000000" d="M647.0399,-181.543C638.1813,-192.5389 625.2743,-205.9259 610.5209,-213 577.1973,-228.9783 475.3333,-235.3039 416.227,-237.6771"/>
<polygon fill="#000000" stroke="#000000" points="415.9269,-234.1859 406.067,-238.0631 416.1927,-241.1809 415.9269,-234.1859"/>
</g>
<!-- kibanaY -->
<g id="node27" class="node">
<title>kibanaY</title>
<ellipse fill="none" stroke="#ffa500" cx="658.5209" cy="-42" rx="40.0939" ry="18"/>
<text text-anchor="middle" x="658.5209" y="-38.3" font-family="Times,serif" font-size="14.00" fill="#000000">yellow</text>
</g>
<!-- elasticY&#45;&gt;kibanaY -->
<g id="edge26" class="edge">
<title>elasticY&#45;&gt;kibanaY</title>
<path fill="none" stroke="#000000" d="M659.3733,-145.9985C659.2094,-125.9958 658.9426,-93.4427 658.7511,-70.0831"/>
<polygon fill="#000000" stroke="#000000" points="662.251,-70.0463 658.6691,-60.0754 655.2512,-70.1038 662.251,-70.0463"/>
</g>
<!-- elasticB -->
<g id="node16" class="node">
<title>elasticB</title>
<ellipse fill="none" stroke="#000000" cx="569.5209" cy="-164" rx="31.6951" ry="18"/>
<text text-anchor="middle" x="569.5209" y="-160.3" font-family="Times,serif" font-size="14.00" fill="#000000">Blue</text>
</g>
<!-- elasticB&#45;&gt;scirius -->
<g id="edge31" class="edge">
<title>elasticB&#45;&gt;scirius</title>
<path fill="none" stroke="#000000" d="M584.3566,-147.8862C591.5566,-141.1461 600.7551,-133.9696 610.5209,-130 631.1731,-121.6052 691.4691,-133.5765 710.5209,-122 729.8893,-110.2311 742.9279,-87.8114 750.8207,-69.6936"/>
<polygon fill="#000000" stroke="#000000" points="754.1699,-70.748 754.6837,-60.1657 747.6827,-68.1179 754.1699,-70.748"/>
</g>
<!-- d3 -->
<g id="node25" class="node">
<title>d3</title>
<ellipse fill="none" stroke="#000000" cx="422.5209" cy="-42" rx="98.2828" ry="18"/>
<text text-anchor="middle" x="422.5209" y="-38.3" font-family="Times,serif" font-size="14.00" fill="#000000">Suricata alert map</text>
</g>
<!-- elasticB&#45;&gt;d3 -->
<g id="edge33" class="edge">
<title>elasticB&#45;&gt;d3</title>
<path fill="none" stroke="#000000" d="M551.4958,-149.0404C526.6882,-128.4518 481.723,-91.1338 451.9874,-66.4552"/>
<polygon fill="#000000" stroke="#000000" points="453.964,-63.5473 444.0337,-59.8542 449.4935,-68.9339 453.964,-63.5473"/>
</g>
<!-- kibanaB -->
<g id="node28" class="node">
<title>kibanaB</title>
<ellipse fill="none" stroke="#0000ff" cx="569.5209" cy="-42" rx="30.5947" ry="18"/>
<text text-anchor="middle" x="569.5209" y="-38.3" font-family="Times,serif" font-size="14.00" fill="#000000">blue</text>
</g>
<!-- elasticB&#45;&gt;kibanaB -->
<g id="edge25" class="edge">
<title>elasticB&#45;&gt;kibanaB</title>
<path fill="none" stroke="#000000" d="M569.5209,-145.9985C569.5209,-125.9958 569.5209,-93.4427 569.5209,-70.0831"/>
<polygon fill="#000000" stroke="#000000" points="573.021,-70.0753 569.5209,-60.0754 566.021,-70.0754 573.021,-70.0753"/>
</g>
<!-- viewer -->
<g id="node23" class="node">
<title>viewer</title>
<ellipse fill="none" stroke="#ffa500" cx="227.5209" cy="-42" rx="79.0865" ry="18"/>
<text text-anchor="middle" x="227.5209" y="-38.3" font-family="Times,serif" font-size="14.00" fill="#000000">Moloch viewer</text>
</g>
<!-- elasticM&#45;&gt;viewer -->
<g id="edge29" class="edge">
<title>elasticM&#45;&gt;viewer</title>
<path fill="none" stroke="#000000" d="M453.1858,-148.0755C442.933,-141.2869 430.1481,-134.0178 417.5209,-130 374.1889,-116.2125 357.2601,-140.0441 315.5209,-122 288.2809,-110.224 263.8889,-86.4533 247.7336,-67.8689"/>
<polygon fill="#000000" stroke="#000000" points="250.2385,-65.4097 241.1201,-60.0147 244.8839,-69.9185 250.2385,-65.4097"/>
</g>
<!-- inventory&#45;&gt;elasticY -->
<g id="edge13" class="edge">
<title>inventory&#45;&gt;elasticY</title>
<path fill="none" stroke="#000000" d="M341.4823,-180.3401C362.9967,-193.3375 395.4161,-210.3991 426.5209,-217 445.5418,-221.0365 582.5,-221.0365 601.5209,-217 617.7829,-213.549 631.7066,-201.3716 641.8326,-189.5587"/>
<polygon fill="#000000" stroke="#000000" points="644.7203,-191.5513 648.2183,-181.5506 639.2472,-187.1871 644.7203,-191.5513"/>
</g>
<!-- inventory&#45;&gt;viewer -->
<g id="edge30" class="edge">
<title>inventory&#45;&gt;viewer</title>
<path fill="none" stroke="#000000" d="M303.5795,-146.2602C288.5513,-125.6597 263.6297,-91.4974 246.4318,-67.9229"/>
<polygon fill="#000000" stroke="#000000" points="249.199,-65.7773 240.4779,-59.7613 243.5439,-69.9028 249.199,-65.7773"/>
</g>
<!-- collab -->
<g id="node19" class="node">
<title>collab</title>
<ellipse fill="none" stroke="#000000" cx="283.5209" cy="-239" rx="38.1938" ry="18"/>
<text text-anchor="middle" x="283.5209" y="-235.3" font-family="Times,serif" font-size="14.00" fill="#000000">collab</text>
</g>
<!-- collab&#45;&gt;inventory -->
<g id="edge14" class="edge">
<title>collab&#45;&gt;inventory</title>
<path fill="none" stroke="#000000" d="M291.3414,-221.226C295.299,-212.2316 300.1878,-201.1206 304.6017,-191.0891"/>
<polygon fill="#000000" stroke="#000000" points="307.8183,-192.469 308.6421,-181.9063 301.4111,-189.6498 307.8183,-192.469"/>
</g>
<!-- peek&#45;&gt;kafkaB -->
<g id="edge22" class="edge">
<title>peek&#45;&gt;kafkaB</title>
<path fill="none" stroke="#000000" d="M359.9357,-255.9055C352.0828,-265.8552 341.4224,-278.3401 330.5209,-288 324.3609,-293.4584 317.2678,-298.7221 310.3678,-303.4105"/>
<polygon fill="#000000" stroke="#000000" points="308.2628,-300.6052 301.8157,-309.0127 312.0986,-306.4607 308.2628,-300.6052"/>
</g>
<!-- peek&#45;&gt;elasticB -->
<g id="edge23" class="edge">
<title>peek&#45;&gt;elasticB</title>
<path fill="none" stroke="#000000" d="M405.61,-236.1929C445.0173,-232.3863 508.084,-224.6906 528.5209,-213 538.4439,-207.3237 547.0223,-198.2761 553.7304,-189.4916"/>
<polygon fill="#000000" stroke="#000000" points="556.6339,-191.448 559.5717,-181.2686 550.9272,-187.3941 556.6339,-191.448"/>
</g>
<!-- alerta -->
<g id="node22" class="node">
<title>alerta</title>
<ellipse fill="none" stroke="#0000ff" cx="90.5209" cy="-42" rx="39.7935" ry="18"/>
<text text-anchor="middle" x="90.5209" y="-38.3" font-family="Times,serif" font-size="14.00" fill="#000000">Alerta</text>
</g>
<!-- sec&#45;&gt;alerta -->
<g id="edge28" class="edge">
<title>sec&#45;&gt;alerta</title>
<path fill="none" stroke="#000000" d="M132.2758,-220.8198C124.2143,-186.2958 106.6416,-111.0387 97.0637,-70.0203"/>
<polygon fill="#000000" stroke="#000000" points="100.438,-69.0784 94.7558,-60.1362 93.6214,-70.6702 100.438,-69.0784"/>
</g>
<!-- viewer&#45;&gt;kafkaY -->
<g id="edge27" class="edge">
<title>viewer&#45;&gt;kafkaY</title>
<path fill="none" stroke="#000000" d="M213.9274,-60.0279C198.3204,-79.1802 170.807,-108.5162 139.5209,-122 118.0308,-131.2619 50.4269,-112.836 34.5209,-130 -13.2103,-181.5062 -9.4939,-233.2838 34.5209,-288 47.5864,-304.2421 99.3661,-313.1625 139.5251,-317.7419"/>
<polygon fill="#000000" stroke="#000000" points="139.3973,-321.2483 149.7151,-318.8411 140.1481,-314.2887 139.3973,-321.2483"/>
</g>
</g>
</svg>
