<?xml version="1.0" encoding="UTF-8" standalone="no"?>
<!DOCTYPE svg PUBLIC "-//W3C//DTD SVG 1.1//EN"
 "http://www.w3.org/Graphics/SVG/1.1/DTD/svg11.dtd">
<!-- Generated by graphviz version 2.40.1 (20161225.0304)
 -->
<!-- Title: %3 Pages: 1 -->
<svg width="1209pt" height="562pt"
 viewBox="0.00 0.00 1209.00 562.00" xmlns="http://www.w3.org/2000/svg" xmlns:xlink="http://www.w3.org/1999/xlink">
<g id="graph0" class="graph" transform="scale(1 1) rotate(0) translate(4 558)">
<title>%3</title>
<polygon fill="#ffffff" stroke="transparent" points="-4,4 -4,-558 1205,-558 1205,4 -4,4"/>
<g id="clust1" class="cluster">
<title>cluster_input</title>
<polygon fill="none" stroke="#000000" points="79,-213 79,-546 890,-546 890,-213 79,-213"/>
<text text-anchor="middle" x="484.5" y="-530.8" font-family="Times,serif" font-size="14.00" fill="#000000">Input</text>
</g>
<g id="clust2" class="cluster">
<title>cluster_pcap</title>
<polygon fill="none" stroke="#000000" points="87,-285 87,-360 488,-360 488,-285 87,-285"/>
<text text-anchor="middle" x="287.5" y="-344.8" font-family="Times,serif" font-size="14.00" fill="#000000">Input</text>
</g>
<g id="clust3" class="cluster">
<title>cluster_win</title>
<polygon fill="none" stroke="#000000" points="658,-285 658,-515 882,-515 882,-285 658,-285"/>
<text text-anchor="middle" x="770" y="-499.8" font-family="Times,serif" font-size="14.00" fill="#000000">Windows</text>
</g>
<g id="clust4" class="cluster">
<title>cluster_syslog</title>
<polygon fill="none" stroke="#000000" points="399,-368 399,-515 633,-515 633,-368 399,-368"/>
<text text-anchor="middle" x="516" y="-499.8" font-family="Times,serif" font-size="14.00" fill="#000000">linux</text>
</g>
<g id="clust5" class="cluster">
<title>cluster_kafka</title>
<polygon fill="none" stroke="#000000" points="1015,-130 1015,-205 1193,-205 1193,-130 1015,-130"/>
<text text-anchor="middle" x="1104" y="-189.8" font-family="Times,serif" font-size="14.00" fill="#000000">Kafka</text>
</g>
<g id="clust6" class="cluster">
<title>cluster_ela</title>
<polygon fill="none" stroke="#000000" points="306,-130 306,-205 592,-205 592,-130 306,-130"/>
<text text-anchor="middle" x="449" y="-189.8" font-family="Times,serif" font-size="14.00" fill="#000000">Elastic</text>
</g>
<g id="clust7" class="cluster">
<title>cluster_sauce</title>
<polygon fill="none" stroke="#000000" points="632,-130 632,-205 1007,-205 1007,-130 632,-130"/>
<text text-anchor="middle" x="819.5" y="-189.8" font-family="Times,serif" font-size="14.00" fill="#000000">sauce</text>
</g>
<g id="clust8" class="cluster">
<title>cluster_front</title>
<polygon fill="none" stroke="#000000" points="8,-8 8,-122 886,-122 886,-8 8,-8"/>
<text text-anchor="middle" x="447" y="-106.8" font-family="Times,serif" font-size="14.00" fill="#000000">Frontend</text>
</g>
<g id="clust9" class="cluster">
<title>cluster_kibana</title>
<polygon fill="none" stroke="#000000" points="435,-16 435,-91 611,-91 611,-16 435,-16"/>
<text text-anchor="middle" x="523" y="-75.8" font-family="Times,serif" font-size="14.00" fill="#000000">Kibana</text>
</g>
<!-- syslog -->
<g id="node1" class="node">
<title>syslog</title>
<ellipse fill="none" stroke="#000000" cx="499" cy="-239" rx="79.0865" ry="18"/>
<text text-anchor="middle" x="499" y="-235.3" font-family="Times,serif" font-size="14.00" fill="#000000">Rsyslog server</text>
</g>
<!-- kafkaY -->
<g id="node14" class="node">
<title>kafkaY</title>
<ellipse fill="none" stroke="#000000" cx="1063" cy="-156" rx="40.0939" ry="18"/>
<text text-anchor="middle" x="1063" y="-152.3" font-family="Times,serif" font-size="14.00" fill="#000000">Yellow</text>
</g>
<!-- syslog&#45;&gt;kafkaY -->
<g id="edge19" class="edge">
<title>syslog&#45;&gt;kafkaY</title>
<path fill="none" stroke="#000000" d="M541.8909,-223.8222C556.0682,-219.483 572.0428,-215.3076 587,-213 610.2843,-209.4077 989.1851,-213.8979 1011,-205 1023.383,-199.9492 1034.5588,-190.4619 1043.3479,-181.1707"/>
<polygon fill="#000000" stroke="#000000" points="1046.1232,-183.3164 1050.1435,-173.514 1040.8878,-178.6698 1046.1232,-183.3164"/>
</g>
<!-- elasticY -->
<g id="node16" class="node">
<title>elasticY</title>
<ellipse fill="none" stroke="#000000" cx="544" cy="-156" rx="40.0939" ry="18"/>
<text text-anchor="middle" x="544" y="-152.3" font-family="Times,serif" font-size="14.00" fill="#000000">Yellow</text>
</g>
<!-- syslog&#45;&gt;elasticY -->
<g id="edge20" class="edge">
<title>syslog&#45;&gt;elasticY</title>
<path fill="none" stroke="#000000" d="M508.7643,-220.9902C514.8203,-209.8203 522.7118,-195.2649 529.4909,-182.7612"/>
<polygon fill="#000000" stroke="#000000" points="532.7199,-184.1488 534.4093,-173.6895 526.5661,-180.8124 532.7199,-184.1488"/>
</g>
<!-- pcap -->
<g id="node2" class="node">
<title>pcap</title>
<ellipse fill="none" stroke="#000000" cx="287" cy="-394" rx="63.8893" ry="18"/>
<text text-anchor="middle" x="287" y="-390.3" font-family="Times,serif" font-size="14.00" fill="#000000">Port mirror</text>
</g>
<!-- bro -->
<g id="node3" class="node">
<title>bro</title>
<ellipse fill="none" stroke="#000000" cx="453" cy="-311" rx="27" ry="18"/>
<text text-anchor="middle" x="453" y="-307.3" font-family="Times,serif" font-size="14.00" fill="#000000">bro</text>
</g>
<!-- pcap&#45;&gt;bro -->
<g id="edge1" class="edge">
<title>pcap&#45;&gt;bro</title>
<path fill="none" stroke="#000000" d="M336.9477,-382.6293C370.6229,-374.6745 410.1243,-364.6685 417,-360 425.6854,-354.1027 433.0557,-345.3922 438.8219,-336.9443"/>
<polygon fill="#000000" stroke="#000000" points="441.8594,-338.6892 444.238,-328.3648 435.9402,-334.9525 441.8594,-338.6892"/>
</g>
<!-- moloch -->
<g id="node4" class="node">
<title>moloch</title>
<ellipse fill="none" stroke="#000000" cx="248" cy="-311" rx="44.393" ry="18"/>
<text text-anchor="middle" x="248" y="-307.3" font-family="Times,serif" font-size="14.00" fill="#000000">moloch</text>
</g>
<!-- pcap&#45;&gt;moloch -->
<g id="edge2" class="edge">
<title>pcap&#45;&gt;moloch</title>
<path fill="none" stroke="#000000" d="M278.5376,-375.9902C273.289,-364.8203 266.4498,-350.2649 260.5745,-337.7612"/>
<polygon fill="#000000" stroke="#000000" points="263.7324,-336.2517 256.3119,-328.6895 257.397,-339.2286 263.7324,-336.2517"/>
</g>
<!-- suricata -->
<g id="node5" class="node">
<title>suricata</title>
<ellipse fill="none" stroke="#000000" cx="359" cy="-311" rx="48.9926" ry="18"/>
<text text-anchor="middle" x="359" y="-307.3" font-family="Times,serif" font-size="14.00" fill="#000000">suricata</text>
</g>
<!-- pcap&#45;&gt;suricata -->
<g id="edge3" class="edge">
<title>pcap&#45;&gt;suricata</title>
<path fill="none" stroke="#000000" d="M302.2693,-376.3978C312.4563,-364.6546 326.0027,-349.0385 337.3035,-336.0112"/>
<polygon fill="#000000" stroke="#000000" points="340.0906,-338.1396 343.9996,-328.2922 334.8029,-333.5526 340.0906,-338.1396"/>
</g>
<!-- mendel_cap -->
<g id="node6" class="node">
<title>mendel_cap</title>
<ellipse fill="none" stroke="#000000" cx="140" cy="-311" rx="45.4919" ry="18"/>
<text text-anchor="middle" x="140" y="-307.3" font-family="Times,serif" font-size="14.00" fill="#000000">Mendel</text>
</g>
<!-- pcap&#45;&gt;mendel_cap -->
<g id="edge4" class="edge">
<title>pcap&#45;&gt;mendel_cap</title>
<path fill="none" stroke="#000000" d="M241.9408,-381.1155C226.4843,-375.7313 209.4514,-368.68 195,-360 183.6945,-353.2095 172.5723,-343.9385 163.3205,-335.2873"/>
<polygon fill="#000000" stroke="#000000" points="165.6478,-332.6691 156.0258,-328.2342 160.782,-337.7014 165.6478,-332.6691"/>
</g>
<!-- bro&#45;&gt;kafkaY -->
<g id="edge17" class="edge">
<title>bro&#45;&gt;kafkaY</title>
<path fill="none" stroke="#000000" d="M467.4891,-295.6396C472.3189,-291.4583 478.0078,-287.4198 484,-285 649.6581,-218.1015 711.0713,-297.8268 885,-257 943.9785,-243.1558 960.1129,-237.8728 1011,-205 1021.6376,-198.1282 1032.0608,-188.9442 1040.7489,-180.3852"/>
<polygon fill="#000000" stroke="#000000" points="1043.3934,-182.6874 1047.8989,-173.0983 1038.3969,-177.7848 1043.3934,-182.6874"/>
</g>
<!-- elasticM -->
<g id="node18" class="node">
<title>elasticM</title>
<ellipse fill="none" stroke="#000000" cx="441" cy="-156" rx="44.6926" ry="18"/>
<text text-anchor="middle" x="441" y="-152.3" font-family="Times,serif" font-size="14.00" fill="#000000">Moloch</text>
</g>
<!-- moloch&#45;&gt;elasticM -->
<g id="edge18" class="edge">
<title>moloch&#45;&gt;elasticM</title>
<path fill="none" stroke="#000000" d="M244.5232,-292.7537C241.4384,-270.4111 240.2983,-233.0721 262,-213 272.2172,-203.5501 374.1835,-210.4248 387,-205 399.6945,-199.6268 411.3597,-189.9593 420.5745,-180.6228"/>
<polygon fill="#000000" stroke="#000000" points="423.1491,-182.9938 427.412,-173.2944 418.0309,-178.2184 423.1491,-182.9938"/>
</g>
<!-- suricata&#45;&gt;syslog -->
<g id="edge16" class="edge">
<title>suricata&#45;&gt;syslog</title>
<path fill="none" stroke="#000000" d="M387.6689,-296.256C407.9183,-285.842 435.3569,-271.7307 457.9269,-260.1233"/>
<polygon fill="#000000" stroke="#000000" points="459.6549,-263.1704 466.947,-255.4844 456.4534,-256.9454 459.6549,-263.1704"/>
</g>
<!-- scirius -->
<g id="node24" class="node">
<title>scirius</title>
<ellipse fill="none" stroke="#000000" cx="167" cy="-42" rx="43.5923" ry="18"/>
<text text-anchor="middle" x="167" y="-38.3" font-family="Times,serif" font-size="14.00" fill="#000000">Scirius</text>
</g>
<!-- suricata&#45;&gt;scirius -->
<g id="edge32" class="edge">
<title>suricata&#45;&gt;scirius</title>
<path fill="none" stroke="#000000" d="M338.2824,-294.5011C326.3189,-284.3983 311.4268,-270.7943 300,-257 248.5678,-194.9116 202.4677,-111.2285 180.5285,-68.9085"/>
<polygon fill="#000000" stroke="#000000" points="183.533,-67.0974 175.8504,-59.8016 177.3065,-70.296 183.533,-67.0974"/>
</g>
<!-- mendel_front -->
<g id="node26" class="node">
<title>mendel_front</title>
<ellipse fill="none" stroke="#000000" cx="61" cy="-42" rx="44.6926" ry="18"/>
<text text-anchor="middle" x="61" y="-38.3" font-family="Times,serif" font-size="14.00" fill="#000000">mendel</text>
</g>
<!-- mendel_cap&#45;&gt;mendel_front -->
<g id="edge34" class="edge">
<title>mendel_cap&#45;&gt;mendel_front</title>
<path fill="none" stroke="#000000" d="M134.6939,-292.9325C121.1737,-246.8951 85.3569,-124.9367 69.1591,-69.7822"/>
<polygon fill="#000000" stroke="#000000" points="72.459,-68.5974 66.283,-59.9889 65.7427,-70.57 72.459,-68.5974"/>
</g>
<!-- salt -->
<g id="node7" class="node">
<title>salt</title>
<ellipse fill="none" stroke="#000000" cx="584" cy="-311" rx="65.7887" ry="18"/>
<text text-anchor="middle" x="584" y="-307.3" font-family="Times,serif" font-size="14.00" fill="#000000">Salt Master</text>
</g>
<!-- inventory -->
<g id="node8" class="node">
<title>inventory</title>
<ellipse fill="none" stroke="#ffa500" cx="652" cy="-239" rx="55.7903" ry="18"/>
<text text-anchor="middle" x="652" y="-235.3" font-family="Times,serif" font-size="14.00" fill="#000000">Inventory</text>
</g>
<!-- salt&#45;&gt;inventory -->
<g id="edge12" class="edge">
<title>salt&#45;&gt;inventory</title>
<path fill="none" stroke="#000000" d="M600.4609,-293.5708C608.897,-284.6385 619.3169,-273.6056 628.575,-263.8029"/>
<polygon fill="#000000" stroke="#000000" points="631.369,-265.942 635.6907,-256.2687 626.2799,-261.1357 631.369,-265.942"/>
</g>
<!-- inventory&#45;&gt;elasticY -->
<g id="edge13" class="edge">
<title>inventory&#45;&gt;elasticY</title>
<path fill="none" stroke="#000000" d="M624.736,-223.1232C615.9796,-217.6873 606.3822,-211.3644 598,-205 587.8624,-197.3029 577.358,-188.0932 568.3388,-179.7465"/>
<polygon fill="#000000" stroke="#000000" points="570.5234,-176.9963 560.8417,-172.6934 565.7269,-182.0947 570.5234,-176.9963"/>
</g>
<!-- viewer -->
<g id="node23" class="node">
<title>viewer</title>
<ellipse fill="none" stroke="#ffa500" cx="701" cy="-42" rx="79.0865" ry="18"/>
<text text-anchor="middle" x="701" y="-38.3" font-family="Times,serif" font-size="14.00" fill="#000000">Moloch viewer</text>
</g>
<!-- inventory&#45;&gt;viewer -->
<g id="edge30" class="edge">
<title>inventory&#45;&gt;viewer</title>
<path fill="none" stroke="#000000" d="M636.5427,-221.4137C633.0511,-216.434 629.836,-210.7848 628,-205 617.9161,-173.2285 616.6876,-161.3551 628,-130 636.9381,-105.2259 656.2202,-82.4936 672.7231,-66.3413"/>
<polygon fill="#000000" stroke="#000000" points="675.2027,-68.8136 680.0629,-59.3993 670.3927,-63.728 675.2027,-68.8136"/>
</g>
<!-- sysmon -->
<g id="node9" class="node">
<title>sysmon</title>
<ellipse fill="none" stroke="#000000" cx="770" cy="-466" rx="47.3916" ry="18"/>
<text text-anchor="middle" x="770" y="-462.3" font-family="Times,serif" font-size="14.00" fill="#000000">Sysmon</text>
</g>
<!-- windows -->
<g id="node10" class="node">
<title>windows</title>
<ellipse fill="none" stroke="#000000" cx="770" cy="-394" rx="103.9815" ry="18"/>
<text text-anchor="middle" x="770" y="-390.3" font-family="Times,serif" font-size="14.00" fill="#000000">Windows Event Log</text>
</g>
<!-- sysmon&#45;&gt;windows -->
<g id="edge5" class="edge">
<title>sysmon&#45;&gt;windows</title>
<path fill="none" stroke="#000000" d="M770,-447.8314C770,-440.131 770,-430.9743 770,-422.4166"/>
<polygon fill="#000000" stroke="#000000" points="773.5001,-422.4132 770,-412.4133 766.5001,-422.4133 773.5001,-422.4132"/>
</g>
<!-- windows&#45;&gt;salt -->
<g id="edge7" class="edge">
<title>windows&#45;&gt;salt</title>
<path fill="none" stroke="#000000" d="M707.2039,-379.6244C689.5548,-374.5153 670.6459,-367.9983 654,-360 639.551,-353.0574 624.8275,-343.2449 612.6358,-334.2225"/>
<polygon fill="#000000" stroke="#000000" points="614.7154,-331.407 604.6344,-328.1475 610.4825,-336.9821 614.7154,-331.407"/>
</g>
<!-- nxlog -->
<g id="node11" class="node">
<title>nxlog</title>
<ellipse fill="none" stroke="#000000" cx="740" cy="-311" rx="43.5923" ry="18"/>
<text text-anchor="middle" x="740" y="-307.3" font-family="Times,serif" font-size="14.00" fill="#000000">NXLog</text>
</g>
<!-- windows&#45;&gt;nxlog -->
<g id="edge6" class="edge">
<title>windows&#45;&gt;nxlog</title>
<path fill="none" stroke="#000000" d="M763.4904,-375.9902C759.5199,-365.005 754.3658,-350.7455 749.8976,-338.3833"/>
<polygon fill="#000000" stroke="#000000" points="753.1877,-337.1894 746.4968,-328.9746 746.6046,-339.5689 753.1877,-337.1894"/>
</g>
<!-- nxlog&#45;&gt;syslog -->
<g id="edge10" class="edge">
<title>nxlog&#45;&gt;syslog</title>
<path fill="none" stroke="#000000" d="M715.1809,-295.9528C707.8963,-291.9816 699.79,-287.9785 692,-285 669.3692,-276.3471 613.3295,-263.3133 567.4328,-253.3263"/>
<polygon fill="#000000" stroke="#000000" points="568.0247,-249.8735 557.5107,-251.1801 566.5447,-256.7153 568.0247,-249.8735"/>
</g>
<!-- snoopy -->
<g id="node12" class="node">
<title>snoopy</title>
<ellipse fill="none" stroke="#000000" cx="516" cy="-466" rx="44.6926" ry="18"/>
<text text-anchor="middle" x="516" y="-462.3" font-family="Times,serif" font-size="14.00" fill="#000000">Snoopy</text>
</g>
<!-- linux -->
<g id="node13" class="node">
<title>linux</title>
<ellipse fill="none" stroke="#000000" cx="516" cy="-394" rx="108.5808" ry="18"/>
<text text-anchor="middle" x="516" y="-390.3" font-family="Times,serif" font-size="14.00" fill="#000000">Rsyslog syslog client</text>
</g>
<!-- snoopy&#45;&gt;linux -->
<g id="edge8" class="edge">
<title>snoopy&#45;&gt;linux</title>
<path fill="none" stroke="#000000" d="M516,-447.8314C516,-440.131 516,-430.9743 516,-422.4166"/>
<polygon fill="#000000" stroke="#000000" points="519.5001,-422.4132 516,-412.4133 512.5001,-422.4133 519.5001,-422.4132"/>
</g>
<!-- linux&#45;&gt;syslog -->
<g id="edge11" class="edge">
<title>linux&#45;&gt;syslog</title>
<path fill="none" stroke="#000000" d="M511.8146,-375.72C510.7693,-370.6505 509.7373,-365.1301 509,-360 504.4547,-328.3761 501.7862,-291.7831 500.3655,-267.1907"/>
<polygon fill="#000000" stroke="#000000" points="503.8555,-266.9104 499.8147,-257.1165 496.8659,-267.2927 503.8555,-266.9104"/>
</g>
<!-- linux&#45;&gt;salt -->
<g id="edge9" class="edge">
<title>linux&#45;&gt;salt</title>
<path fill="none" stroke="#000000" d="M530.755,-375.9902C540.1755,-364.4917 552.535,-349.4058 562.9746,-336.6634"/>
<polygon fill="#000000" stroke="#000000" points="565.8773,-338.643 569.5074,-328.6895 560.4625,-334.2068 565.8773,-338.643"/>
</g>
<!-- peek -->
<g id="node20" class="node">
<title>peek</title>
<ellipse fill="none" stroke="#ffa500" cx="673" cy="-156" rx="33.2948" ry="18"/>
<text text-anchor="middle" x="673" y="-152.3" font-family="Times,serif" font-size="14.00" fill="#000000">peek</text>
</g>
<!-- kafkaY&#45;&gt;peek -->
<g id="edge21" class="edge">
<title>kafkaY&#45;&gt;peek</title>
<path fill="none" stroke="#000000" d="M1051.0906,-173.2149C1040.2219,-186.953 1022.7227,-204.6024 1002,-209 986.892,-212.2061 739.108,-212.2061 724,-209 708.822,-205.779 696.5627,-193.6756 687.8708,-181.8474"/>
<polygon fill="#000000" stroke="#000000" points="690.6757,-179.7467 682.1816,-173.4141 684.8727,-183.6615 690.6757,-179.7467"/>
</g>
<!-- kafkaB -->
<g id="node15" class="node">
<title>kafkaB</title>
<ellipse fill="none" stroke="#000000" cx="1153" cy="-156" rx="31.6951" ry="18"/>
<text text-anchor="middle" x="1153" y="-152.3" font-family="Times,serif" font-size="14.00" fill="#000000">Blue</text>
</g>
<!-- sec -->
<g id="node21" class="node">
<title>sec</title>
<ellipse fill="none" stroke="#ffa500" cx="814" cy="-156" rx="90.1842" ry="18"/>
<text text-anchor="middle" x="814" y="-152.3" font-family="Times,serif" font-size="14.00" fill="#000000">Correlation rules</text>
</g>
<!-- kafkaB&#45;&gt;sec -->
<g id="edge24" class="edge">
<title>kafkaB&#45;&gt;sec</title>
<path fill="none" stroke="#000000" d="M1144.0958,-173.4331C1135.7234,-187.3077 1121.6851,-205.0348 1103,-209 1083.4357,-213.1518 942.5643,-213.1518 923,-209 896.8217,-203.4446 869.7521,-190.3283 849.1378,-178.5346"/>
<polygon fill="#000000" stroke="#000000" points="850.8279,-175.4682 840.434,-173.4145 847.2786,-181.5017 850.8279,-175.4682"/>
</g>
<!-- elasticY&#45;&gt;peek -->
<g id="edge15" class="edge">
<title>elasticY&#45;&gt;peek</title>
<path fill="none" stroke="#000000" d="M584.3125,-156C599.3247,-156 614.3369,-156 629.3491,-156"/>
<polygon fill="#000000" stroke="#000000" points="629.7422,-159.5001 639.7422,-156 629.7422,-152.5001 629.7422,-159.5001"/>
</g>
<!-- kibanaY -->
<g id="node27" class="node">
<title>kibanaY</title>
<ellipse fill="none" stroke="#ffa500" cx="563" cy="-42" rx="40.0939" ry="18"/>
<text text-anchor="middle" x="563" y="-38.3" font-family="Times,serif" font-size="14.00" fill="#000000">yellow</text>
</g>
<!-- elasticY&#45;&gt;kibanaY -->
<g id="edge26" class="edge">
<title>elasticY&#45;&gt;kibanaY</title>
<path fill="none" stroke="#000000" d="M547.0106,-137.9364C550.0541,-119.6753 554.7998,-91.2013 558.3315,-70.0112"/>
<polygon fill="#000000" stroke="#000000" points="561.8118,-70.4185 560.0035,-59.9791 554.907,-69.2676 561.8118,-70.4185"/>
</g>
<!-- elasticB -->
<g id="node17" class="node">
<title>elasticB</title>
<ellipse fill="none" stroke="#000000" cx="346" cy="-156" rx="31.6951" ry="18"/>
<text text-anchor="middle" x="346" y="-152.3" font-family="Times,serif" font-size="14.00" fill="#000000">Blue</text>
</g>
<!-- elasticB&#45;&gt;scirius -->
<g id="edge31" class="edge">
<title>elasticB&#45;&gt;scirius</title>
<path fill="none" stroke="#000000" d="M325.3149,-141.8913C317.6763,-137.3466 308.7444,-132.7728 300,-130 265.9385,-119.1995 250.5991,-140.4535 220,-122 200.2584,-110.0944 186.3735,-87.6858 177.7819,-69.607"/>
<polygon fill="#000000" stroke="#000000" points="180.815,-67.8143 173.5497,-60.1029 174.4203,-70.6619 180.815,-67.8143"/>
</g>
<!-- d3 -->
<g id="node25" class="node">
<title>d3</title>
<ellipse fill="none" stroke="#000000" cx="327" cy="-42" rx="98.2828" ry="18"/>
<text text-anchor="middle" x="327" y="-38.3" font-family="Times,serif" font-size="14.00" fill="#000000">Suricata alert map</text>
</g>
<!-- elasticB&#45;&gt;d3 -->
<g id="edge33" class="edge">
<title>elasticB&#45;&gt;d3</title>
<path fill="none" stroke="#000000" d="M342.9894,-137.9364C339.9638,-119.7827 335.256,-91.536 331.731,-70.3859"/>
<polygon fill="#000000" stroke="#000000" points="335.1559,-69.6451 330.0594,-60.3566 328.2511,-70.796 335.1559,-69.6451"/>
</g>
<!-- kibanaB -->
<g id="node28" class="node">
<title>kibanaB</title>
<ellipse fill="none" stroke="#0000ff" cx="474" cy="-42" rx="30.5947" ry="18"/>
<text text-anchor="middle" x="474" y="-38.3" font-family="Times,serif" font-size="14.00" fill="#000000">blue</text>
</g>
<!-- elasticB&#45;&gt;kibanaB -->
<g id="edge25" class="edge">
<title>elasticB&#45;&gt;kibanaB</title>
<path fill="none" stroke="#000000" d="M365.1493,-141.5571C371.7645,-137.2089 379.4241,-132.8421 387,-130 408.8931,-121.7869 420.4635,-136.2536 439,-122 455.3752,-109.4084 464.2341,-87.5569 468.939,-69.87"/>
<polygon fill="#000000" stroke="#000000" points="472.3686,-70.575 471.2545,-60.0389 465.5551,-68.9702 472.3686,-70.575"/>
</g>
<!-- elasticM&#45;&gt;viewer -->
<g id="edge29" class="edge">
<title>elasticM&#45;&gt;viewer</title>
<path fill="none" stroke="#000000" d="M466.5947,-141.2092C475.3323,-136.8378 485.3408,-132.5452 495,-130 520.8437,-123.1901 590.467,-132.6021 615,-122 641.9043,-110.3731 665.7071,-86.5841 681.4102,-67.9549"/>
<polygon fill="#000000" stroke="#000000" points="684.2251,-70.0412 687.8332,-60.0796 678.8005,-65.6169 684.2251,-70.0412"/>
</g>
<!-- collab -->
<g id="node19" class="node">
<title>collab</title>
<ellipse fill="none" stroke="#000000" cx="961" cy="-156" rx="38.1938" ry="18"/>
<text text-anchor="middle" x="961" y="-152.3" font-family="Times,serif" font-size="14.00" fill="#000000">collab</text>
</g>
<!-- collab&#45;&gt;inventory -->
<g id="edge14" class="edge">
<title>collab&#45;&gt;inventory</title>
<path fill="none" stroke="#000000" d="M948.8007,-173.4415C940.1342,-184.3946 927.4932,-197.772 913,-205 895.7291,-213.6133 787.5867,-225.6655 716.0315,-232.8665"/>
<polygon fill="#000000" stroke="#000000" points="715.3575,-229.4163 705.7548,-233.8928 716.0532,-236.3817 715.3575,-229.4163"/>
</g>
<!-- peek&#45;&gt;kafkaB -->
<g id="edge22" class="edge">
<title>peek&#45;&gt;kafkaB</title>
<path fill="none" stroke="#000000" d="M682.1816,-173.4141C690.7836,-187.2769 705.138,-204.9972 724,-209 744.5969,-213.371 1082.4031,-213.371 1103,-209 1118.0357,-205.8092 1130.0624,-193.7074 1138.5493,-181.8724"/>
<polygon fill="#000000" stroke="#000000" points="1141.5284,-183.7122 1144.0958,-173.4331 1135.6787,-179.8675 1141.5284,-183.7122"/>
</g>
<!-- peek&#45;&gt;elasticB -->
<g id="edge23" class="edge">
<title>peek&#45;&gt;elasticB</title>
<path fill="none" stroke="#000000" d="M662.4446,-173.3166C652.703,-187.1184 636.7727,-204.804 617,-209 592.9794,-214.0975 420.0206,-214.0975 396,-209 380.9643,-205.8092 368.9376,-193.7074 360.4507,-181.8724"/>
<polygon fill="#000000" stroke="#000000" points="363.3213,-179.8675 354.9042,-173.4331 357.4716,-183.7122 363.3213,-179.8675"/>
</g>
<!-- alerta -->
<g id="node22" class="node">
<title>alerta</title>
<ellipse fill="none" stroke="#0000ff" cx="838" cy="-42" rx="39.7935" ry="18"/>
<text text-anchor="middle" x="838" y="-38.3" font-family="Times,serif" font-size="14.00" fill="#000000">Alerta</text>
</g>
<!-- sec&#45;&gt;alerta -->
<g id="edge28" class="edge">
<title>sec&#45;&gt;alerta</title>
<path fill="none" stroke="#000000" d="M817.8029,-137.9364C821.6473,-119.6753 827.6418,-91.2013 832.1029,-70.0112"/>
<polygon fill="#000000" stroke="#000000" points="835.5797,-70.4857 834.2149,-59.9791 828.7298,-69.0436 835.5797,-70.4857"/>
</g>
<!-- viewer&#45;&gt;kafkaY -->
<g id="edge27" class="edge">
<title>viewer&#45;&gt;kafkaY</title>
<path fill="none" stroke="#000000" d="M714.2127,-59.9154C729.6807,-79.2688 757.2591,-109.067 789,-122 834.7161,-140.6273 963.1673,-117.7948 1011,-130 1017.3539,-131.6213 1023.832,-134.0943 1029.9618,-136.8822"/>
<polygon fill="#000000" stroke="#000000" points="1028.7219,-140.1727 1039.2401,-141.4453 1031.8112,-133.8913 1028.7219,-140.1727"/>
</g>
</g>
</svg>
